<?xml version="1.0" encoding="UTF-8" standalone="no"?>
<svg
   xmlns:dc="http://purl.org/dc/elements/1.1/"
   xmlns:cc="http://creativecommons.org/ns#"
   xmlns:rdf="http://www.w3.org/1999/02/22-rdf-syntax-ns#"
   xmlns:svg="http://www.w3.org/2000/svg"
   xmlns="http://www.w3.org/2000/svg"
   xmlns:xlink="http://www.w3.org/1999/xlink"
   xmlns:sodipodi="http://sodipodi.sourceforge.net/DTD/sodipodi-0.dtd"
   xmlns:inkscape="http://www.inkscape.org/namespaces/inkscape"
   width="210mm"
   height="210mm"
   viewBox="0 0 210 210"
   version="1.1"
   id="svg8"
   inkscape:version="1.0.1 (3bc2e813f5, 2020-09-07)"
   sodipodi:docname="qlmm.svg"
   inkscape:export-filename="C:\Users\kangang\Desktop\qlmm.png"
   inkscape:export-xdpi="241.90475"
   inkscape:export-ydpi="241.90475">
  <defs
     id="defs2">
    <linearGradient
       inkscape:collect="always"
       id="linearGradient839">
      <stop
         style="stop-color:#ee1f1f;stop-opacity:1"
         offset="0"
         id="stop835" />
      <stop
         style="stop-color:#ef3333;stop-opacity:1"
         offset="0.15508883"
         id="stop845" />
      <stop
         style="stop-color:#f58282;stop-opacity:1"
         offset="0.18587267"
         id="stop851" />
      <stop
         style="stop-color:#f04141;stop-opacity:1;"
         offset="0.19043541"
         id="stop849" />
      <stop
         style="stop-color:#f14b4b;stop-opacity:1"
         offset="0.24561909"
         id="stop843" />
      <stop
         style="stop-color:#ed2424;stop-opacity:1"
         offset="0.27194804"
         id="stop847" />
      <stop
         style="stop-color:#ed1b1b;stop-opacity:1;"
         offset="0.27194804"
         id="stop853" />
      <stop
         style="stop-color:#f25b5b;stop-opacity:1"
         offset="0.34531501"
         id="stop855" />
      <stop
         style="stop-color:#ee1818;stop-opacity:1;"
         offset="0.3627944"
         id="stop857" />
      <stop
         style="stop-color:#ee1616;stop-opacity:1"
         offset="1"
         id="stop837" />
    </linearGradient>
    <linearGradient
       inkscape:collect="always"
       xlink:href="#linearGradient839"
       id="linearGradient841"
       x1="43.989666"
       y1="0"
       x2="116.2982"
       y2="210"
       gradientUnits="userSpaceOnUse" />
  </defs>
  <sodipodi:namedview
     id="base"
     pagecolor="#353535"
     bordercolor="#666666"
     borderopacity="1.0"
     inkscape:pageopacity="0"
     inkscape:pageshadow="2"
     inkscape:zoom="0.49497475"
     inkscape:cx="405.90289"
     inkscape:cy="528.02322"
     inkscape:document-units="mm"
     inkscape:current-layer="layer1"
     inkscape:document-rotation="0"
     showgrid="false"
     inkscape:snap-page="true"
     inkscape:snap-bbox="true"
     inkscape:bbox-nodes="true"
     inkscape:window-width="2560"
     inkscape:window-height="1027"
     inkscape:window-x="1912"
     inkscape:window-y="-8"
     inkscape:window-maximized="1" />
  <metadata
     id="metadata5">
    <rdf:RDF>
      <cc:Work
         rdf:about="">
        <dc:format>image/svg+xml</dc:format>
        <dc:type
           rdf:resource="http://purl.org/dc/dcmitype/StillImage" />
        <dc:title />
      </cc:Work>
    </rdf:RDF>
  </metadata>
  <g
     inkscape:label="Layer 1"
     inkscape:groupmode="layer"
     id="layer1">
    <g
       id="g872"
       transform="matrix(0.9409,0,0,0.9409,6.2055,6.2055)">
      <circle
         style="fill:url(#linearGradient841);fill-opacity:1;stroke:#ffffff;stroke-width:5.565;stroke-miterlimit:4;stroke-dasharray:none;stroke-opacity:1"
         id="path833"
         cx="105"
         cy="105"
         r="105" />
      <circle
         style="fill:#f25b5b;fill-opacity:1;stroke:#ffffff;stroke-width:13.1216;stroke-miterlimit:4;stroke-dasharray:none;stroke-opacity:1"
         id="path859"
         cx="105"
         cy="105"
         r="69.291359" />
      <path
         d="m 122.21052,105 q 0,-7.126232 -5.04215,-12.168368 -5.04214,-5.04215 -12.16837,-5.04215 -7.12623,0 -12.16837,5.04215 Q 87.78949,97.873768 87.78949,105 q 0,7.12623 5.04214,12.16837 5.04214,5.04215 12.16837,5.04215 7.12623,0 12.16837,-5.04215 5.04215,-5.04214 5.04215,-12.16837 z m 34.42103,-7.327908 v 14.924738 q 0,0.80674 -0.53783,1.54626 -0.53783,0.73951 -1.34457,0.87397 l -12.43729,1.8824 q -1.27734,3.63034 -2.62191,6.1178 2.353,3.36143 7.19345,9.27754 0.67229,0.80675 0.67229,1.68072 0,0.87397 -0.60506,1.54626 -1.81517,2.48745 -6.65562,7.26068 -4.84046,4.77323 -6.31949,4.77323 -0.80675,0 -1.74794,-0.60506 l -9.27755,-7.26068 q -2.95806,1.54625 -6.1178,2.55468 -1.07566,9.14309 -1.94963,12.50452 -0.4706,1.8824 -2.42023,1.8824 H 97.53763 q -0.9412,0 -1.6471,-0.57144 -0.7059,-0.57145 -0.77313,-1.44542 L 93.235,142.24463 q -3.2942,-1.07565 -6.05057,-2.48745 l -9.47923,7.19345 q -0.67229,0.60506 -1.68071,0.60506 -0.94121,0 -1.68072,-0.73951 -8.4708,-7.66406 -11.09271,-11.2944 -0.4706,-0.67229 -0.4706,-1.54626 0,-0.80675 0.53782,-1.54626 1.00843,-1.4118 3.42866,-4.4707 2.42023,-3.0589 3.63034,-4.73961 -1.81517,-3.36143 -2.75637,-6.65563 l -12.30283,-1.81517 q -0.87397,-0.13446 -1.4118,-0.84036 -0.53783,-0.7059 -0.53783,-1.57987 V 97.403172 q 0,-0.80674 0.53783,-1.54626 0.53783,-0.73951 1.27735,-0.87397 l 12.50451,-1.8824 q 0.9412,-3.09251 2.62192,-6.18503 -2.68915,-3.83203 -7.19346,-9.27754 -0.67229,-0.80674 -0.67229,-1.61349 0,-0.67228 0.60506,-1.54625 1.74794,-2.42023 6.62201,-7.22708 4.87408,-4.80684 6.35311,-4.80684 0.87397,0 1.74794,0.67229 l 9.27754,7.19345 q 2.95806,-1.54625 6.1178,-2.55468 1.07566,-9.14309 1.94963,-12.50452 0.4706,-1.8824 2.42023,-1.8824 h 14.92474 q 0.9412,0 1.6471,0.57145 0.7059,0.57144 0.77313,1.44541 l 1.8824,12.37006 q 3.2942,1.07566 6.05057,2.48746 l 9.54646,-7.19346 q 0.60506,-0.60506 1.61349,-0.60506 0.87397,0 1.68071,0.67229 8.67249,8.0002 11.09272,11.42886 0.4706,0.53782 0.4706,1.47902 0,0.80675 -0.53783,1.54626 -1.00843,1.4118 -3.42866,4.4707 -2.42023,3.0589 -3.63034,4.73962 1.74794,3.36143 2.75637,6.5884 l 12.30283,1.8824 q 0.87397,0.13445 1.4118,0.84035 0.53783,0.70591 0.53783,1.57988 z"
         id="path3029"
         inkscape:connector-curvature="0"
         style="fill:#fefefe;fill-opacity:1;stroke-width:0.0672285" />
    </g>
  </g>
</svg>
