<?xml version="1.0" encoding="UTF-8" standalone="no"?>
<svg
   xmlns:dc="http://purl.org/dc/elements/1.1/"
   xmlns:cc="http://creativecommons.org/ns#"
   xmlns:rdf="http://www.w3.org/1999/02/22-rdf-syntax-ns#"
   xmlns:svg="http://www.w3.org/2000/svg"
   xmlns="http://www.w3.org/2000/svg"
   xmlns:xlink="http://www.w3.org/1999/xlink"
   xmlns:sodipodi="http://sodipodi.sourceforge.net/DTD/sodipodi-0.dtd"
   xmlns:inkscape="http://www.inkscape.org/namespaces/inkscape"
   width="210mm"
   height="210mm"
   viewBox="0 0 210 210"
   version="1.1"
   id="svg8"
   inkscape:version="1.0.1 (3bc2e813f5, 2020-09-07)"
   sodipodi:docname="qlmm_installer.svg"
   inkscape:export-filename="C:\Users\kangang\source\repos\QLMM\QLMM\qlmm_installer.png"
   inkscape:export-xdpi="241.90475"
   inkscape:export-ydpi="241.90475">
  <defs
     id="defs2">
    <linearGradient
       inkscape:collect="always"
       id="linearGradient839">
      <stop
         style="stop-color:#ee1f1f;stop-opacity:1"
         offset="0"
         id="stop835" />
      <stop
         style="stop-color:#ef3333;stop-opacity:1"
         offset="0.15508883"
         id="stop845" />
      <stop
         style="stop-color:#f58282;stop-opacity:1"
         offset="0.18587267"
         id="stop851" />
      <stop
         style="stop-color:#f04141;stop-opacity:1;"
         offset="0.19043541"
         id="stop849" />
      <stop
         style="stop-color:#f14b4b;stop-opacity:1"
         offset="0.24561909"
         id="stop843" />
      <stop
         style="stop-color:#ed2424;stop-opacity:1"
         offset="0.27194804"
         id="stop847" />
      <stop
         style="stop-color:#ed1b1b;stop-opacity:1;"
         offset="0.27194804"
         id="stop853" />
      <stop
         style="stop-color:#f25b5b;stop-opacity:1"
         offset="0.34531501"
         id="stop855" />
      <stop
         style="stop-color:#ee1818;stop-opacity:1;"
         offset="0.3627944"
         id="stop857" />
      <stop
         style="stop-color:#ee1616;stop-opacity:1"
         offset="1"
         id="stop837" />
    </linearGradient>
    <linearGradient
       inkscape:collect="always"
       xlink:href="#linearGradient839"
       id="linearGradient841"
       x1="43.989666"
       y1="0"
       x2="116.2982"
       y2="210"
       gradientUnits="userSpaceOnUse" />
  </defs>
  <sodipodi:namedview
     id="base"
     pagecolor="#353535"
     bordercolor="#666666"
     borderopacity="1.0"
     inkscape:pageopacity="0"
     inkscape:pageshadow="2"
     inkscape:zoom="0.7"
     inkscape:cx="557.09373"
     inkscape:cy="539.92569"
     inkscape:document-units="mm"
     inkscape:current-layer="g872"
     inkscape:document-rotation="0"
     showgrid="false"
     inkscape:snap-page="true"
     inkscape:snap-bbox="true"
     inkscape:bbox-nodes="true"
     inkscape:window-width="2560"
     inkscape:window-height="1027"
     inkscape:window-x="1912"
     inkscape:window-y="-8"
     inkscape:window-maximized="1" />
  <metadata
     id="metadata5">
    <rdf:RDF>
      <cc:Work
         rdf:about="">
        <dc:format>image/svg+xml</dc:format>
        <dc:type
           rdf:resource="http://purl.org/dc/dcmitype/StillImage" />
        <dc:title></dc:title>
      </cc:Work>
    </rdf:RDF>
  </metadata>
  <g
     inkscape:label="Layer 1"
     inkscape:groupmode="layer"
     id="layer1">
    <g
       id="g872"
       transform="matrix(0.9409,0,0,0.9409,6.2055,6.2055)">
      <circle
         style="fill:url(#linearGradient841);fill-opacity:1;stroke:#ffffff;stroke-width:5.565;stroke-miterlimit:4;stroke-dasharray:none;stroke-opacity:1"
         id="path833"
         cx="105"
         cy="105"
         r="105" />
      <circle
         style="fill:#f25b5b;fill-opacity:1;stroke:#ffffff;stroke-width:13.1216;stroke-miterlimit:4;stroke-dasharray:none;stroke-opacity:1"
         id="path859"
         cx="105"
         cy="105"
         r="69.291359" />
      <path
         d="m 79.517043,134.10349 q 0,-1.44821 -1.058311,-2.50652 -1.058307,-1.05831 -2.506519,-1.05831 -1.448212,0 -2.506521,1.05831 -1.058309,1.05831 -1.058309,2.50652 0,1.44821 1.058309,2.50651 1.058308,1.05832 2.506521,1.05832 1.448212,0 2.506519,-1.05832 1.058311,-1.0583 1.058311,-2.50651 z M 115.38813,110.7093 77.400425,148.697 q -2.060917,2.06092 -5.013042,2.06092 -2.896423,0 -5.068738,-2.06092 l -5.90425,-6.01564 q -2.116616,-2.00522 -2.116616,-5.01304 0,-2.95213 2.116616,-5.06875 L 99.346401,94.667565 q 2.172319,5.458645 6.377699,9.664035 4.20539,4.20538 9.66403,6.3777 z m 35.31409,-24.229701 q 0,2.172321 -1.28111,5.904253 -2.61793,7.463866 -9.16272,12.114848 -6.5448,4.65098 -14.39857,4.65098 -10.30459,0 -17.62919,-7.3246 -7.32462,-7.324609 -7.32462,-17.629194 0,-10.304584 7.32462,-17.629193 7.3246,-7.324613 17.62919,-7.324613 3.23062,0 6.7676,0.919059 3.53698,0.91906 5.9878,2.590073 0.89121,0.612704 0.89121,1.559609 0,0.946911 -0.89121,1.559615 l -16.32023,9.413375 v 12.476905 l 10.75019,5.959945 q 0.27849,-0.167093 4.40033,-2.701469 4.12183,-2.534367 7.54742,-4.511742 3.42557,-1.977368 3.92687,-1.977368 0.83551,0 1.30896,0.557008 0.47346,0.557007 0.47346,1.392509 z"
         id="path870"
         style="fill:#fefefe;fill-opacity:1;stroke-width:0.0557002" />
    </g>
  </g>
</svg>
